# xmcd
#
# Track frame offsets:
#	150
#	19567
#	40007
#	60024
#	76339
#	99356
#	121032
#	148205
#	172619
#	193120
#	222381
#	246402
#	268586
#
# Disc length: 3814 seconds
#
# Revision: 1
# Processed by: cddbd v1.4PL0 Copyright (c) Steve Scherf et al.
# Submitted via: audiograbber 1.81.03
#
DISCID=a30ee40d
DTITLE=Nobby Reed Project - Every Mile
DYEAR=2002
DGENRE=Blues
TTITLE0=I-89
TTITLE1=Poor Man's Blues
TTITLE2=Have You Heard
TTITLE3=Tele-jellie
TTITLE4=Joyful Noise
TTITLE5=Condition Blue
TTITLE6=Green Mountain Magic
TTITLE7=Just A little
TTITLE8=It's A Sin
TTITLE9=Meta-Blues
TTITLE10=Tears In My Eyes
TTITLE11=Highway Song
TTITLE12=Every Mile
EXTD=
EXTT0=
EXTT1=
EXTT2=
EXTT3=
EXTT4=
EXTT5=
EXTT6=
EXTT7=
EXTT8=
EXTT9=
EXTT10=
EXTT11=
EXTT12=
PLAYORDER=
